<svg width="128" height="128" viewBox="0 0 128 128" xmlns="http://www.w3.org/2000/svg">
  <!-- Background -->
  <rect width="128" height="128" rx="24" fill="#6D28D9"/>
  
  <!-- Magic wand -->
  <path d="M25 103 L85 43" stroke="#F9A8D4" stroke-width="10" stroke-linecap="round"/>
  <path d="M80 48 L90 38" stroke="#F9A8D4" stroke-width="10" stroke-linecap="round"/>
  
  <!-- Wand sparkle -->
  <circle cx="90" cy="38" r="6" fill="#FFFF00"/>
  
  <!-- Emoji (Winking face) -->
  <circle cx="85" cy="43" r="24" fill="#FDE68A"/>
  <!-- Left eye (open) -->
  <circle cx="77" cy="39" r="4" fill="#1F2937"/>
  <!-- Right eye (winking) -->
  <path d="M93 39 Q97 35 101 39" stroke="#1F2937" stroke-width="3" stroke-linecap="round" fill="none"/>
  <!-- Smile -->
  <path d="M77 51 Q85 57 93 51" stroke="#1F2937" stroke-width="4" stroke-linecap="round" fill="none"/>
  
  <!-- Sparkles around emoji -->
  <path d="M115 43 L120 43 M117.5 40.5 L117.5 45.5" stroke="#FFFF00" stroke-width="2" stroke-linecap="round"/>
  <path d="M105 23 L110 23 M107.5 20.5 L107.5 25.5" stroke="#87CEFA" stroke-width="2" stroke-linecap="round"/>
  <path d="M65 23 L70 23 M67.5 20.5 L67.5 25.5" stroke="#FFFF00" stroke-width="2" stroke-linecap="round"/>
  <path d="M55 43 L60 43 M57.5 40.5 L57.5 45.5" stroke="#87CEFA" stroke-width="2" stroke-linecap="round"/>
  <path d="M65 63 L70 63 M67.5 60.5 L67.5 65.5" stroke="#FFFF00" stroke-width="2" stroke-linecap="round"/>
  <path d="M105 63 L110 63 M107.5 60.5 L107.5 65.5" stroke="#87CEFA" stroke-width="2" stroke-linecap="round"/>
</svg>